<svg width="266" height="57" viewBox="0 0 266 57" fill="none" xmlns="http://www.w3.org/2000/svg">
<rect width="266" height="57" rx="27.5" fill="#2EABE2"/>
<path d="M53.98 35.4L53.665 28.855L65.39 16.5H71.69L61.12 27.875L57.97 31.235L53.98 35.4ZM48.905 41V16.5H54.54V41H48.905ZM65.67 41L56.955 30.325L60.665 26.3L72.285 41H65.67ZM70.4653 41L81.3853 16.5H86.9853L97.9403 41H91.9903L83.0303 19.37H85.2703L76.2753 41H70.4653ZM75.9253 35.75L77.4303 31.445H90.0303L91.5703 35.75H75.9253ZM104.327 41V21.12H96.4867V16.5H117.837V21.12H109.997V41H104.327ZM116.437 41L127.357 16.5H132.957L143.912 41H137.962L129.002 19.37H131.242L122.247 41H116.437ZM121.897 35.75L123.402 31.445H136.002L137.542 35.75H121.897ZM146.454 41V16.5H152.124V36.38H164.409V41H146.454ZM179.067 41.42C177.13 41.42 175.333 41.105 173.677 40.475C172.043 39.845 170.62 38.9583 169.407 37.815C168.217 36.6717 167.283 35.33 166.607 33.79C165.953 32.25 165.627 30.57 165.627 28.75C165.627 26.93 165.953 25.25 166.607 23.71C167.283 22.17 168.228 20.8283 169.442 19.685C170.655 18.5417 172.078 17.655 173.712 17.025C175.345 16.395 177.118 16.08 179.032 16.08C180.968 16.08 182.742 16.395 184.352 17.025C185.985 17.655 187.397 18.5417 188.587 19.685C189.8 20.8283 190.745 22.17 191.422 23.71C192.098 25.2267 192.437 26.9067 192.437 28.75C192.437 30.57 192.098 32.2617 191.422 33.825C190.745 35.365 189.8 36.7067 188.587 37.85C187.397 38.97 185.985 39.845 184.352 40.475C182.742 41.105 180.98 41.42 179.067 41.42ZM179.032 36.59C180.128 36.59 181.132 36.4033 182.042 36.03C182.975 35.6567 183.792 35.12 184.492 34.42C185.192 33.72 185.728 32.8917 186.102 31.935C186.498 30.9783 186.697 29.9167 186.697 28.75C186.697 27.5833 186.498 26.5217 186.102 25.565C185.728 24.6083 185.192 23.78 184.492 23.08C183.815 22.38 183.01 21.8433 182.077 21.47C181.143 21.0967 180.128 20.91 179.032 20.91C177.935 20.91 176.92 21.0967 175.987 21.47C175.077 21.8433 174.272 22.38 173.572 23.08C172.872 23.78 172.323 24.6083 171.927 25.565C171.553 26.5217 171.367 27.5833 171.367 28.75C171.367 29.8933 171.553 30.955 171.927 31.935C172.323 32.8917 172.86 33.72 173.537 34.42C174.237 35.12 175.053 35.6567 175.987 36.03C176.92 36.4033 177.935 36.59 179.032 36.59ZM208.528 41.42C206.591 41.42 204.806 41.1167 203.173 40.51C201.563 39.88 200.151 38.9933 198.938 37.85C197.748 36.7067 196.815 35.365 196.138 33.825C195.485 32.285 195.158 30.5933 195.158 28.75C195.158 26.9067 195.485 25.215 196.138 23.675C196.815 22.135 197.76 20.7933 198.973 19.65C200.186 18.5067 201.61 17.6317 203.243 17.025C204.876 16.395 206.673 16.08 208.633 16.08C210.803 16.08 212.751 16.4417 214.478 17.165C216.228 17.8883 217.698 18.9383 218.888 20.315L215.248 23.675C214.361 22.7417 213.393 22.0533 212.343 21.61C211.293 21.1433 210.15 20.91 208.913 20.91C207.723 20.91 206.638 21.0967 205.658 21.47C204.678 21.8433 203.826 22.38 203.103 23.08C202.403 23.78 201.855 24.6083 201.458 25.565C201.085 26.5217 200.898 27.5833 200.898 28.75C200.898 29.8933 201.085 30.9433 201.458 31.9C201.855 32.8567 202.403 33.6967 203.103 34.42C203.826 35.12 204.666 35.6567 205.623 36.03C206.603 36.4033 207.676 36.59 208.843 36.59C209.963 36.59 211.048 36.415 212.098 36.065C213.171 35.6917 214.21 35.0733 215.213 34.21L218.433 38.305C217.103 39.3083 215.551 40.0783 213.778 40.615C212.028 41.1517 210.278 41.42 208.528 41.42ZM213.253 37.57V28.365H218.433V38.305L213.253 37.57Z" fill="white"/>
</svg>
