<svg width="266" height="57" viewBox="0 0 266 57" fill="none" xmlns="http://www.w3.org/2000/svg">
<path d="M0 28.5C0 12.7599 12.783 0 28.5516 0H237.448C253.217 0 266 12.7599 266 28.5C266 44.2401 253.217 57 237.448 57H28.5516C12.783 57 0 44.2401 0 28.5Z" fill="#2EABE2"/>
<path d="M51.8411 39.3084C50.2798 39.3084 48.8245 39.0582 47.4752 38.558C46.1452 38.0385 44.9887 37.3073 44.0057 36.3646C43.0226 35.4218 42.2516 34.3154 41.6926 33.0456C41.1529 31.7757 40.883 30.3808 40.883 28.8608C40.883 27.3408 41.1529 25.9458 41.6926 24.6759C42.2516 23.4061 43.0226 22.2997 44.0057 21.357C45.008 20.4142 46.1741 19.6927 47.5041 19.1924C48.8341 18.6729 50.2894 18.4132 51.87 18.4132C53.6241 18.4132 55.2046 18.721 56.6117 19.3367C58.0381 19.9332 59.2332 20.8182 60.197 21.9919L57.19 24.7625C56.4961 23.9737 55.7251 23.3868 54.877 23.002C54.0288 22.598 53.1036 22.396 52.1013 22.396C51.1568 22.396 50.2894 22.5499 49.4991 22.8577C48.7088 23.1656 48.0246 23.6081 47.4463 24.1853C46.868 24.7625 46.4151 25.4456 46.0874 26.2344C45.779 27.0233 45.6248 27.8987 45.6248 28.8608C45.6248 29.8228 45.779 30.6982 46.0874 31.4871C46.4151 32.2759 46.868 32.959 47.4463 33.5362C48.0246 34.1134 48.7088 34.556 49.4991 34.8638C50.2894 35.1716 51.1568 35.3256 52.1013 35.3256C53.1036 35.3256 54.0288 35.1332 54.877 34.7484C55.7251 34.3443 56.4961 33.7382 57.19 32.9301L60.197 35.7008C59.2332 36.8744 58.0381 37.7691 56.6117 38.3848C55.2046 39.0005 53.6144 39.3084 51.8411 39.3084Z" fill="white"/>
<path d="M60.3047 38.962L69.3256 18.7595H73.9517L83.0014 38.962H78.0862L70.6845 21.1261H72.5349L65.1043 38.962H60.3047ZM64.8151 34.6329L66.0584 31.083H76.4671L77.7393 34.6329H64.8151Z" fill="white"/>
<path d="M88.2772 38.962V22.5691H81.8006V18.7595H99.4376V22.5691H92.9611V38.962H88.2772Z" fill="white"/>
<path d="M98.2813 38.962L107.302 18.7595H111.928L120.978 38.962H116.063L108.661 21.1261H110.512L103.081 38.962H98.2813ZM102.792 34.6329L104.035 31.083H114.444L115.716 34.6329H102.792Z" fill="white"/>
<path d="M123.078 38.962V18.7595H127.762V35.1524H137.91V38.962H123.078Z" fill="white"/>
<path d="M150.019 39.3084C148.419 39.3084 146.935 39.0486 145.566 38.5291C144.217 38.0096 143.041 37.2785 142.039 36.3357C141.056 35.3929 140.285 34.2866 139.726 33.0167C139.186 31.7468 138.916 30.3615 138.916 28.8608C138.916 27.36 139.186 25.9747 139.726 24.7048C140.285 23.4349 141.066 22.3286 142.068 21.3858C143.07 20.443 144.246 19.7119 145.595 19.1924C146.945 18.6729 148.409 18.4132 149.99 18.4132C151.59 18.4132 153.055 18.6729 154.385 19.1924C155.734 19.7119 156.9 20.443 157.883 21.3858C158.886 22.3286 159.666 23.4349 160.225 24.7048C160.784 25.9554 161.064 27.3408 161.064 28.8608C161.064 30.3615 160.784 31.7565 160.225 33.0456C159.666 34.3154 158.886 35.4218 157.883 36.3646C156.9 37.2881 155.734 38.0096 154.385 38.5291C153.055 39.0486 151.6 39.3084 150.019 39.3084ZM149.99 35.3256C150.896 35.3256 151.725 35.1716 152.477 34.8638C153.248 34.556 153.922 34.1134 154.5 33.5362C155.079 32.959 155.522 32.2759 155.83 31.4871C156.158 30.6982 156.322 29.8228 156.322 28.8608C156.322 27.8987 156.158 27.0233 155.83 26.2344C155.522 25.4456 155.079 24.7625 154.5 24.1853C153.941 23.6081 153.276 23.1656 152.505 22.8577C151.734 22.5499 150.896 22.396 149.99 22.396C149.084 22.396 148.246 22.5499 147.475 22.8577C146.723 23.1656 146.058 23.6081 145.48 24.1853C144.901 24.7625 144.448 25.4456 144.121 26.2344C143.812 27.0233 143.658 27.8987 143.658 28.8608C143.658 29.8035 143.812 30.679 144.121 31.4871C144.448 32.2759 144.892 32.959 145.451 33.5362C146.029 34.1134 146.704 34.556 147.475 34.8638C148.246 35.1716 149.084 35.3256 149.99 35.3256Z" fill="white"/>
<path d="M174.356 39.3084C172.757 39.3084 171.282 39.0582 169.933 38.558C168.603 38.0385 167.437 37.3073 166.434 36.3646C165.451 35.4218 164.68 34.3154 164.121 33.0456C163.582 31.7757 163.312 30.3808 163.312 28.8608C163.312 27.3408 163.582 25.9458 164.121 24.6759C164.68 23.4061 165.461 22.2997 166.463 21.357C167.466 20.4142 168.641 19.6927 169.991 19.1924C171.34 18.6729 172.824 18.4132 174.443 18.4132C176.236 18.4132 177.845 18.7114 179.272 19.3078C180.717 19.9043 181.932 20.7701 182.915 21.9053L179.908 24.6759C179.175 23.9063 178.375 23.3387 177.508 22.9732C176.641 22.5884 175.696 22.396 174.675 22.396C173.691 22.396 172.795 22.5499 171.986 22.8577C171.176 23.1656 170.473 23.6081 169.875 24.1853C169.297 24.7625 168.844 25.4456 168.516 26.2344C168.208 27.0233 168.053 27.8987 168.053 28.8608C168.053 29.8035 168.208 30.6694 168.516 31.4582C168.844 32.2471 169.297 32.9397 169.875 33.5362C170.473 34.1134 171.166 34.556 171.957 34.8638C172.766 35.1716 173.653 35.3256 174.617 35.3256C175.542 35.3256 176.438 35.1813 177.306 34.8927C178.192 34.5848 179.05 34.0749 179.879 33.363L182.539 36.7397C181.44 37.5671 180.158 38.202 178.693 38.6446C177.248 39.0871 175.802 39.3084 174.356 39.3084ZM178.26 36.1337V28.5433H182.539V36.7397L178.26 36.1337Z" fill="white"/>
<path d="M195.882 39.3084C193.01 39.3084 190.764 38.5099 189.145 36.9129C187.526 35.3159 186.716 33.0359 186.716 30.0729V18.7595H191.4V29.8997C191.4 31.8238 191.795 33.2091 192.586 34.0557C193.376 34.9023 194.484 35.3256 195.911 35.3256C197.337 35.3256 198.445 34.9023 199.236 34.0557C200.026 33.2091 200.421 31.8238 200.421 29.8997V18.7595H205.047V30.0729C205.047 33.0359 204.238 35.3159 202.619 36.9129C200.999 38.5099 198.754 39.3084 195.882 39.3084Z" fill="white"/>
<path d="M213.984 26.8982H223.728V30.5347H213.984V26.8982ZM214.331 35.2101H225.347V38.962H209.676V18.7595H224.971V22.5114H214.331V35.2101Z" fill="white"/>
</svg>
