<?xml version="1.0" encoding="utf-8"?>
<!-- Generator: Adobe Illustrator 25.1.0, SVG Export Plug-In . SVG Version: 6.00 Build 0)  -->
<svg version="1.1" id="Layer_1" xmlns="http://www.w3.org/2000/svg" xmlns:xlink="http://www.w3.org/1999/xlink" x="0px" y="0px"
	 viewBox="0 0 120 40" style="enable-background:new 0 0 120 40;" xml:space="preserve">
<style type="text/css">
	.st0{fill:#00ADEE;}
	.st1{fill:#EC1C24;}
	.st2{fill-rule:evenodd;clip-rule:evenodd;fill:#4DB757;}
</style>
<g>
	<path class="st0" d="M19.1,4.7C10.4,4.8,3.3,11.8,3.2,20.5c0,1.6,0.2,3.2,0.6,4.6l-3.7,2l8,2.3l1.1-4l1.1-4l-3.3,1.8
		c-0.2-0.9-0.3-1.8-0.3-2.8C6.9,14,12.1,8.7,18.5,8.3L17,6.7L19.1,4.7"/>
	<path class="st1" d="M8.3,29.8L5.5,29c1,1.7,2.3,3.2,3.9,4.4c0.6-0.3,1.2-0.5,1.8-0.9c0.6-0.3,1.2-0.7,1.7-1.1c-1.6-1-3-2.3-4-3.8
		L8.3,29.8"/>
	<path class="st1" d="M23.3,5.2L23.4,1l-3,2.9l-3,2.9l5.8,5.9l0.1-3.7c1.9,0.6,3.5,1.7,4.9,3c0.8-0.9,1.7-1.7,2.7-2.5
		C28.8,7.4,26.2,5.9,23.3,5.2"/>
	<path class="st2" d="M35.5,7.4c-4.6,10.2-0.9,15.3-4.1,23.4c-2.9,7.3-12.5,9-20.3,7.9c3.4-2.2,6.3-4.4,8.1-7.2
		c1.2-1.3,2.4-2.5,5.7-1.9c-2.1-0.6-3.5-0.4-4.6,0.1c0.8-1.3,1.5-2.7,2.1-4c1-1.1,2.1-2.1,5-1.6c-2-0.5-3.3-0.3-4.3,0.2
		c0.9-1.8,1.7-3.6,2.6-5.4c1-1,2-1.8,4.7-1.3c-1.8-0.5-3.1-0.3-4,0.1C28.5,13.9,31.2,10.3,35.5,7.4"/>
	<path class="st2" d="M37.1,6.3c-14.2,5.6-15,20.7-25.9,26.7C10,33.7,8.6,34.2,7,34.7c-4.1,1.1-1.4,5,2.4,2.8c0.9-0.5,1.7-1,2.4-1.5
		C25,26.8,23.2,13.3,37.1,6.3"/>
	<path class="st0" d="M54.1,20.5c0,2.2-0.7,4.1-2.1,5.7c-1.5,1.7-3.3,2.6-5.5,2.6c-1.9,0-3.6-0.7-4.9-2l0,8.3l-4.5,0l-0.1-22.5
		l4.3,0l0,1.9c1.2-1.6,2.9-2.4,5-2.4c2.3,0,4.2,0.8,5.7,2.5C53.4,16.1,54.1,18.1,54.1,20.5 M41.6,20.4c0,1.2,0.4,2.3,1.1,3.1
		c0.8,0.9,1.8,1.3,3,1.3c1.2,0,2.1-0.4,2.9-1.3c0.8-0.9,1.2-1.9,1.2-3.1c0-1.2-0.4-2.2-1.2-3.1c-0.8-0.8-1.8-1.3-3-1.3
		C43.2,16.1,41.6,18,41.6,20.4"/>
	<path class="st0" d="M55.5,12.5l4.3,0l0,1.8c0.6-1.1,1.9-2.1,3.1-2.1c0.8,0,1.5,0.1,2,0.3l0,4c-0.7-0.2-1.3-0.3-1.9-0.3
		c-1.1,0-1.8,0.6-2.3,1.6c-0.4,0.8-0.5,1.8-0.5,3l0,7.5l-4.5,0L55.5,12.5"/>
	<path class="st0" d="M82.1,28.2l-4.5,0l0-1.8c-1,1.4-2.9,2.3-4.7,2.3c-2.3,0-4.2-0.8-5.7-2.5c-1.4-1.6-2.1-3.5-2.2-5.9
		c0-2.3,0.7-4.3,2.1-5.9c1.5-1.6,3.3-2.4,5.7-2.4c2.1,0,3.7,0.7,4.7,2.1l0-1.6l4.5,0L82.1,28.2 M77.6,20.4c0-1.2-0.4-2.3-1.2-3.2
		c-0.8-0.9-1.8-1.3-3.1-1.3c-1.2,0-2.2,0.4-2.9,1.3c-0.8,0.9-1.1,1.9-1.1,3.1c0,1.2,0.4,2.2,1.2,3.1c0.8,0.9,1.8,1.3,2.9,1.3
		c1.2,0,2.1-0.4,2.9-1.3C77.2,22.6,77.6,21.6,77.6,20.4"/>
	<path class="st0" d="M98.7,28.2l-4.5,0l0-9c0-2.2-0.9-3.2-2.5-3.2c-1.9,0-2.8,1.3-2.8,3.7l0,8.5l-4.6,0l-0.1-15.8l4.4,0l0,1.8
		c0.9-1.5,2.3-2.2,4.2-2.2c3.8,0,5.9,2.2,5.9,6L98.7,28.2"/>
	<path class="st0" d="M117.1,28.1l-4.5,0l0-1.8c-1,1.4-2.9,2.3-4.7,2.3c-2.3,0-4.2-0.8-5.7-2.5c-1.4-1.6-2.1-3.5-2.2-5.9
		c0-2.3,0.7-4.3,2.1-5.9c1.5-1.6,3.3-2.4,5.7-2.4c2.1,0,3.7,0.7,4.7,2.1l0-1.6l4.5,0L117.1,28.1 M112.7,20.3c0-1.2-0.4-2.3-1.2-3.2
		c-0.8-0.9-1.8-1.3-3.1-1.3c-1.2,0-2.2,0.4-2.9,1.3c-0.8,0.9-1.1,1.9-1.1,3.1c0,1.2,0.4,2.2,1.2,3.1c0.8,0.9,1.8,1.3,2.9,1.3
		c1.2,0,2.1-0.4,3-1.3C112.3,22.5,112.7,21.5,112.7,20.3"/>
	<path class="st0" d="M118.6,8.9c-0.9,0-1.5,0.6-1.5,1.5c0,0.9,0.6,1.5,1.4,1.5c0.8,0,1.5-0.5,1.5-1.5C120,9.5,119.4,8.9,118.6,8.9
		 M118.5,11.6c-0.7,0-1-0.5-1-1.2c0-0.6,0.3-1.2,1-1.2c0.7,0,1,0.6,1,1.2C119.6,11,119.2,11.6,118.5,11.6"/>
	<path class="st0" d="M118.7,10.4L118.7,10.4c0.2-0.1,0.3-0.2,0.3-0.4c0-0.1-0.1-0.2-0.1-0.3c-0.1-0.1-0.3-0.1-0.5-0.1
		c-0.1,0-0.3,0-0.4,0l0,1.6l0.2,0l0-0.7l0.2,0c0.2,0,0.3,0.1,0.3,0.3c0,0.2,0.1,0.3,0.1,0.4h0.2c0-0.1-0.1-0.2-0.1-0.5
		C118.9,10.6,118.8,10.5,118.7,10.4 M118.4,10.3l-0.2,0l0-0.6c0,0,0.1,0,0.2,0c0.2,0,0.4,0.1,0.4,0.3
		C118.8,10.2,118.7,10.3,118.4,10.3"/>
	<path class="st0" d="M77.7,30.2h0.5v0.5c0.1-0.2,0.3-0.3,0.4-0.4c0.2-0.1,0.3-0.1,0.5-0.1c0.1,0,0.3,0,0.4,0.1l-0.2,0.4
		c-0.1,0-0.2-0.1-0.2-0.1c-0.1,0-0.3,0.1-0.4,0.2c-0.1,0.1-0.2,0.3-0.3,0.6c-0.1,0.2-0.1,0.6-0.1,1.2v1.2h-0.5V30.2z"/>
	<path class="st0" d="M82.7,32.5l0.4,0.2c-0.1,0.2-0.3,0.4-0.4,0.6c-0.2,0.1-0.3,0.3-0.5,0.3c-0.2,0.1-0.4,0.1-0.7,0.1
		c-0.6,0-1-0.2-1.3-0.6c-0.3-0.4-0.5-0.8-0.5-1.2c0-0.4,0.1-0.8,0.4-1.2c0.3-0.4,0.8-0.6,1.4-0.6c0.6,0,1.1,0.2,1.4,0.7
		c0.3,0.3,0.4,0.7,0.4,1.2h-3.1c0,0.4,0.1,0.7,0.4,1c0.2,0.3,0.6,0.4,0.9,0.4c0.2,0,0.3,0,0.5-0.1c0.2-0.1,0.3-0.1,0.4-0.2
		C82.4,32.9,82.6,32.7,82.7,32.5 M82.7,31.6c-0.1-0.2-0.1-0.4-0.3-0.6c-0.1-0.1-0.3-0.3-0.4-0.3c-0.2-0.1-0.4-0.1-0.6-0.1
		c-0.3,0-0.6,0.1-0.9,0.3c-0.2,0.2-0.3,0.4-0.4,0.7H82.7z"/>
	<path class="st0" d="M87.3,30.9L87,31.1c-0.3-0.4-0.7-0.6-1.2-0.6c-0.4,0-0.8,0.1-1,0.4c-0.3,0.3-0.4,0.6-0.4,1
		c0,0.3,0.1,0.5,0.2,0.7c0.1,0.2,0.3,0.4,0.5,0.5c0.2,0.1,0.5,0.2,0.7,0.2c0.5,0,0.9-0.2,1.2-0.6l0.3,0.2c-0.2,0.2-0.4,0.4-0.7,0.6
		c-0.3,0.1-0.6,0.2-0.9,0.2c-0.5,0-1-0.2-1.4-0.5c-0.4-0.3-0.5-0.8-0.5-1.3c0-0.3,0.1-0.6,0.2-0.9c0.2-0.3,0.4-0.5,0.7-0.7
		c0.3-0.2,0.6-0.2,1-0.2c0.2,0,0.4,0,0.7,0.1c0.2,0.1,0.4,0.2,0.5,0.3C87.1,30.6,87.2,30.7,87.3,30.9"/>
	<path class="st0" d="M88.1,30.2h0.4v1.6c0,0.4,0,0.7,0.1,0.8c0.1,0.2,0.2,0.4,0.4,0.5c0.2,0.1,0.4,0.2,0.6,0.2
		c0.2,0,0.5-0.1,0.6-0.2c0.2-0.1,0.3-0.3,0.4-0.5c0-0.1,0.1-0.4,0.1-0.8v-1.6h0.5v1.7c0,0.5-0.1,0.8-0.2,1.1
		c-0.1,0.2-0.3,0.4-0.5,0.6c-0.2,0.1-0.5,0.2-0.8,0.2c-0.3,0-0.6-0.1-0.8-0.2c-0.2-0.1-0.4-0.3-0.5-0.6c-0.1-0.2-0.2-0.6-0.2-1.1
		V30.2z"/>
	<path class="st0" d="M92.1,30.2h0.4v0.6c0.2-0.2,0.4-0.4,0.6-0.5c0.2-0.1,0.5-0.2,0.8-0.2c0.5,0,0.9,0.2,1.3,0.5
		c0.3,0.4,0.5,0.8,0.5,1.3c0,0.5-0.2,0.9-0.5,1.3c-0.3,0.4-0.8,0.5-1.2,0.5c-0.3,0-0.5-0.1-0.8-0.2c-0.2-0.1-0.4-0.3-0.6-0.5v1.8
		h-0.4V30.2z M93.9,30.5c-0.4,0-0.7,0.1-1,0.4c-0.3,0.3-0.4,0.6-0.4,1c0,0.3,0.1,0.5,0.2,0.7c0.1,0.2,0.3,0.4,0.5,0.5
		c0.2,0.1,0.4,0.2,0.7,0.2c0.2,0,0.5-0.1,0.7-0.2c0.2-0.1,0.4-0.3,0.5-0.5c0.1-0.2,0.2-0.5,0.2-0.7c0-0.2-0.1-0.5-0.2-0.7
		c-0.1-0.2-0.3-0.4-0.5-0.5C94.3,30.6,94.1,30.5,93.9,30.5"/>
	<path class="st0" d="M99.4,32.5l0.4,0.2c-0.1,0.2-0.3,0.4-0.4,0.6c-0.2,0.1-0.3,0.3-0.5,0.3c-0.2,0.1-0.4,0.1-0.7,0.1
		c-0.6,0-1-0.2-1.3-0.6c-0.3-0.4-0.5-0.8-0.5-1.2c0-0.4,0.1-0.8,0.4-1.2c0.3-0.4,0.8-0.6,1.4-0.6c0.6,0,1.1,0.2,1.4,0.7
		c0.3,0.3,0.4,0.7,0.4,1.2h-3.1c0,0.4,0.1,0.7,0.4,1c0.2,0.3,0.6,0.4,0.9,0.4c0.2,0,0.3,0,0.5-0.1c0.2-0.1,0.3-0.1,0.4-0.2
		C99.1,32.9,99.3,32.7,99.4,32.5 M99.4,31.6c-0.1-0.2-0.1-0.4-0.3-0.6c-0.1-0.1-0.3-0.3-0.4-0.3c-0.2-0.1-0.4-0.1-0.6-0.1
		c-0.3,0-0.6,0.1-0.9,0.3c-0.2,0.2-0.3,0.4-0.4,0.7H99.4z"/>
	<path class="st0" d="M100.5,30.2h0.5v0.5c0.1-0.2,0.3-0.3,0.4-0.4c0.1-0.1,0.3-0.1,0.5-0.1c0.1,0,0.3,0,0.4,0.1l-0.2,0.4
		c-0.1,0-0.2-0.1-0.2-0.1c-0.1,0-0.3,0.1-0.4,0.2c-0.1,0.1-0.2,0.3-0.3,0.6c0,0.2-0.1,0.6-0.1,1.2v1.2h-0.5V30.2z"/>
	<path class="st0" d="M106.1,30.2v3.4h-0.4V33c-0.2,0.2-0.4,0.4-0.6,0.5c-0.2,0.1-0.5,0.2-0.8,0.2c-0.5,0-0.9-0.2-1.2-0.5
		c-0.3-0.3-0.5-0.8-0.5-1.3c0-0.5,0.2-0.9,0.5-1.3c0.3-0.4,0.8-0.5,1.3-0.5c0.3,0,0.5,0.1,0.8,0.2c0.2,0.1,0.4,0.3,0.6,0.5v-0.6
		H106.1z M104.3,30.5c-0.2,0-0.5,0.1-0.7,0.2c-0.2,0.1-0.4,0.3-0.5,0.5c-0.1,0.2-0.2,0.5-0.2,0.7c0,0.2,0.1,0.5,0.2,0.7
		c0.1,0.2,0.3,0.4,0.5,0.5c0.2,0.1,0.4,0.2,0.7,0.2c0.2,0,0.5-0.1,0.7-0.2c0.2-0.1,0.4-0.3,0.5-0.5c0.1-0.2,0.2-0.4,0.2-0.7
		c0-0.4-0.1-0.7-0.4-1C105,30.7,104.7,30.5,104.3,30.5"/>
	<polygon class="st0" points="107.4,28.9 107.9,28.9 107.9,30.2 108.6,30.2 108.6,30.6 107.9,30.6 107.9,33.6 107.4,33.6 
		107.4,30.6 106.8,30.6 106.8,30.2 107.4,30.2 	"/>
	<path class="st0" d="M110.9,30.1c0.5,0,1,0.2,1.3,0.6c0.3,0.3,0.5,0.8,0.5,1.2c0,0.5-0.2,0.9-0.5,1.3c-0.3,0.4-0.8,0.5-1.3,0.5
		c-0.5,0-1-0.2-1.3-0.5c-0.3-0.4-0.5-0.8-0.5-1.3c0-0.5,0.2-0.9,0.5-1.2C109.9,30.3,110.3,30.1,110.9,30.1 M110.9,30.5
		c-0.4,0-0.7,0.1-0.9,0.4c-0.3,0.3-0.4,0.6-0.4,1c0,0.3,0.1,0.5,0.2,0.7c0.1,0.2,0.3,0.4,0.5,0.5c0.2,0.1,0.4,0.2,0.7,0.2
		c0.2,0,0.5-0.1,0.7-0.2c0.2-0.1,0.4-0.3,0.5-0.5c0.1-0.2,0.2-0.4,0.2-0.7c0-0.4-0.1-0.7-0.4-1C111.6,30.7,111.2,30.5,110.9,30.5"/>
	<path class="st0" d="M113.3,30.2h0.4v0.5c0.1-0.2,0.3-0.3,0.4-0.4c0.1-0.1,0.3-0.1,0.5-0.1c0.1,0,0.3,0,0.4,0.1l-0.2,0.4
		c-0.1,0-0.2-0.1-0.2-0.1c-0.1,0-0.3,0.1-0.4,0.2c-0.1,0.1-0.2,0.3-0.3,0.6c-0.1,0.2-0.1,0.6-0.1,1.2v1.2h-0.4V30.2z"/>
	<path class="st0" d="M117.1,30.6l-0.3,0.3c-0.2-0.2-0.5-0.3-0.7-0.3c-0.1,0-0.3,0-0.4,0.1c-0.1,0.1-0.2,0.2-0.2,0.3
		c0,0.1,0,0.2,0.1,0.3c0.1,0.1,0.3,0.2,0.5,0.4c0.3,0.2,0.6,0.3,0.7,0.5c0.1,0.2,0.2,0.3,0.2,0.5c0,0.3-0.1,0.5-0.3,0.7
		c-0.2,0.2-0.4,0.3-0.7,0.3c-0.2,0-0.4,0-0.6-0.1c-0.2-0.1-0.3-0.2-0.4-0.4l0.3-0.3c0.2,0.3,0.5,0.4,0.7,0.4c0.2,0,0.3-0.1,0.5-0.2
		c0.1-0.1,0.2-0.2,0.2-0.4c0-0.1,0-0.2-0.1-0.3c-0.1-0.1-0.3-0.2-0.6-0.4c-0.3-0.2-0.5-0.3-0.6-0.5c-0.1-0.2-0.2-0.3-0.2-0.5
		c0-0.3,0.1-0.5,0.3-0.7c0.2-0.2,0.4-0.3,0.7-0.3C116.5,30.1,116.8,30.3,117.1,30.6"/>
</g>
</svg>
