<svg width="62" height="20" viewBox="0 0 62 20" fill="none" xmlns="http://www.w3.org/2000/svg">
<g clip-path="url(#clip0_130_160)">
<path d="M10.0594 1.94957C5.46188 2.01368 1.71123 5.68846 1.63212 10.2754C1.62333 11.1234 1.73175 11.9452 1.95737 12.7204L0 13.7928L4.22827 14.9876L4.83189 12.8923L5.43551 10.8028L3.69498 11.7587C3.60121 11.2895 3.5514 10.7999 3.55726 10.3016C3.61586 6.85413 6.35266 4.07109 9.76927 3.86418L8.94588 3.01907L10.0623 1.94666" fill="white"/>
<path d="M4.32838 15.1712L2.83984 14.7486C3.379 15.6433 4.07346 16.4243 4.9027 17.0683C5.23088 16.9284 5.53855 16.7827 5.83743 16.6166C6.16269 16.4388 6.47329 16.2407 6.76338 16.0367C5.91948 15.5296 5.19572 14.8448 4.65656 14.0317L4.32838 15.1712Z" fill="white"/>
<path d="M12.275 2.20895L12.3101 0L10.7278 1.51246L9.14844 3.02783L12.2076 6.15474L12.2398 4.17893C13.2331 4.5024 14.121 5.05027 14.8389 5.7555C15.2725 5.29797 15.7384 4.86085 16.2454 4.45869C15.1729 3.38045 13.8045 2.58779 12.272 2.21186" fill="white"/>
<path fill-rule="evenodd" clip-rule="evenodd" d="M18.7444 3.36005C16.2948 8.75419 18.2756 11.4207 16.5966 15.6695C15.0846 19.4929 9.96849 20.4255 5.83398 19.8368C7.62726 18.6624 9.19199 17.5084 10.1297 16.0688C10.7655 15.4102 11.3838 14.7749 13.1448 15.0925C12.0226 14.7953 11.2783 14.8914 10.7069 15.1362C11.1113 14.4368 11.4775 13.7316 11.8292 13.0293C12.383 12.4523 12.928 11.9102 14.4575 12.1842C13.3939 11.9015 12.7199 12.021 12.1954 12.2833C12.6555 11.3274 13.1009 10.3803 13.5873 9.45651C14.0942 8.94944 14.6715 8.5298 16.0545 8.77459C15.0817 8.51814 14.44 8.59391 13.936 8.80664C15.0612 6.79295 16.4559 4.91622 18.7474 3.36005" fill="white"/>
<path fill-rule="evenodd" clip-rule="evenodd" d="M19.5974 2.77136C12.0902 5.70594 11.6595 13.6616 5.89285 16.8352C5.23356 17.2024 4.48929 17.5084 3.66591 17.7298C1.521 18.3098 2.93043 20.3672 4.95226 19.2132C5.40937 18.948 5.84304 18.6799 6.24155 18.4001C13.1627 13.6034 12.2338 6.47237 19.5974 2.77136Z" fill="white"/>
<path d="M28.6129 10.2783C28.6158 11.444 28.2495 12.4493 27.5082 13.3003C26.7346 14.1979 25.7706 14.6496 24.6073 14.6525C23.5759 14.6554 22.7203 14.2911 22.0229 13.5742L22.0375 17.9513L19.6318 17.9601L19.5938 6.10519L21.8852 6.09936V7.09018C22.5327 6.25672 23.4177 5.83708 24.5282 5.83417C25.7706 5.83417 26.7727 6.27421 27.5346 7.15138C28.2466 7.979 28.6041 9.01936 28.61 10.2783M21.9643 10.2346C21.9643 10.8903 22.1606 11.4469 22.565 11.8927C22.9693 12.3415 23.5026 12.563 24.1619 12.5601C24.7773 12.5601 25.29 12.3357 25.7091 11.8694C26.1281 11.4061 26.3361 10.8611 26.3361 10.2375C26.3361 9.61386 26.1222 9.05433 25.7179 8.60846C25.3135 8.16551 24.7831 7.94403 24.1356 7.94403C22.8404 7.94986 21.9584 8.94068 21.9643 10.2346Z" fill="white"/>
<path d="M29.3516 6.07316L31.6254 6.06734V7.00862C31.9506 6.41704 32.6246 5.88666 33.2546 5.88666C33.6883 5.88666 34.0282 5.94786 34.286 6.05859L34.2919 8.18303C33.9373 8.07229 33.5974 8.02566 33.2868 8.02858C32.7242 8.02858 32.3228 8.31708 32.0503 8.87952C31.8569 9.29624 31.7631 9.82371 31.766 10.4473L31.7778 14.3757L29.3721 14.3815L29.3457 6.07608" fill="white"/>
<path d="M43.4107 14.3348L41.0256 14.3436V13.4023C40.5069 14.1542 39.4931 14.5913 38.5232 14.5942C37.2984 14.5971 36.2962 14.1687 35.5022 13.2916C34.7432 12.4639 34.3682 11.4265 34.3623 10.1967C34.3623 8.96692 34.7432 7.92656 35.4992 7.07853C36.2699 6.23051 37.2691 5.79629 38.5115 5.79047C39.6249 5.79047 40.4512 6.14891 40.9845 6.8862V6.03817L43.3844 6.02943L43.4107 14.3348ZM41.0578 10.2229C41.0578 9.56724 40.8439 9.01063 40.4249 8.56185C40.0029 8.10141 39.455 7.87993 38.7928 7.87993C38.1657 7.87993 37.65 8.10724 37.2485 8.57059C36.8471 9.01937 36.6537 9.56433 36.6566 10.185C36.6566 10.8087 36.8706 11.3507 37.2925 11.8141C37.7144 12.2745 38.2302 12.5135 38.8426 12.5135C39.455 12.5106 39.9678 12.2862 40.4014 11.8345C40.841 11.3711 41.0637 10.8436 41.0607 10.22L41.0578 10.2229Z" fill="white"/>
<path d="M52.2132 14.3057L49.8134 14.3144L49.7988 9.57013C49.7988 8.43651 49.3387 7.87991 48.4509 7.88282C47.4693 7.88282 46.9887 8.54142 46.9916 9.83532L47.0063 14.3232L44.583 14.329L44.5566 6.02357L46.8656 6.01775V6.94445C47.3667 6.16054 48.108 5.77296 49.0897 5.77004C51.0939 5.76421 52.1927 6.94445 52.1986 8.94067L52.2162 14.3057" fill="white"/>
<path d="M61.985 14.2765L59.5939 14.2824V13.3411C59.0812 14.0929 58.0644 14.5301 57.0974 14.533C55.8726 14.5388 54.8675 14.1075 54.0764 13.2303C53.3145 12.4027 52.9395 11.3653 52.9365 10.1355C52.9336 8.9057 53.3175 7.86534 54.0705 7.01731C54.8412 6.16929 55.8433 5.73216 57.0857 5.72925C58.1992 5.72925 59.0226 6.09061 59.5588 6.82498V5.97695L61.9586 5.96821L61.985 14.2736M59.6291 10.1617C59.6291 9.50894 59.4181 8.94941 58.9962 8.50063C58.5742 8.04019 58.0263 7.8158 57.3611 7.81871C56.7341 7.81871 56.2184 8.04602 55.814 8.50937C55.4126 8.95816 55.2192 9.50311 55.2221 10.1238C55.2221 10.7475 55.436 11.2895 55.8609 11.7529C56.2828 12.2133 56.7956 12.4523 57.408 12.4493C58.0234 12.4493 58.5391 12.225 58.9727 11.7733C59.4093 11.3099 59.6291 10.7824 59.6262 10.1588H59.6291V10.1617Z" fill="white"/>
<path d="M29.3516 15.9318H29.7237V16.3456C29.835 16.1824 29.9523 16.06 30.0753 15.9814C30.1984 15.8998 30.3273 15.8619 30.4621 15.8619C30.5617 15.8619 30.6702 15.8939 30.7844 15.958L30.594 16.264C30.5178 16.232 30.4533 16.2145 30.4006 16.2145C30.2775 16.2145 30.1603 16.264 30.049 16.3631C29.9347 16.4622 29.8497 16.6166 29.7911 16.8265C29.7471 16.9868 29.7237 17.3131 29.7237 17.8027V18.7586H29.3516V15.9347V15.9318Z" fill="white"/>
<path d="M33.4887 17.8173L33.7964 17.9776C33.6968 18.1757 33.5796 18.3331 33.4448 18.4555C33.3129 18.5779 33.1635 18.6682 32.9994 18.7323C32.8353 18.7964 32.6448 18.8256 32.4368 18.8256C31.9738 18.8256 31.6105 18.674 31.3497 18.3739C31.0889 18.0708 30.957 17.7299 30.957 17.351C30.957 16.9926 31.0684 16.6749 31.2881 16.3922C31.5694 16.0367 31.9445 15.8589 32.4133 15.8589C32.8822 15.8589 33.2836 16.0425 33.5737 16.4068C33.7788 16.6633 33.8843 16.9867 33.8872 17.3714H31.3321C31.338 17.6978 31.4434 17.9688 31.6486 18.1786C31.8507 18.3885 32.1057 18.4934 32.4045 18.4934C32.5481 18.4934 32.6888 18.4671 32.8265 18.4176C32.9642 18.3681 33.0785 18.301 33.1752 18.2194C33.2719 18.1378 33.3744 18.0038 33.4858 17.8173H33.4887ZM33.4887 17.0567C33.4389 16.8643 33.3686 16.707 33.2748 16.5933C33.181 16.4768 33.058 16.3835 32.9056 16.3136C32.7532 16.2436 32.5921 16.2057 32.4221 16.2057C32.1438 16.2057 31.9035 16.2961 31.7042 16.4738C31.5577 16.605 31.4464 16.7973 31.3731 17.0567H33.4887Z" fill="white"/>
<path d="M37.3276 16.5176L37.0376 16.6953C36.7885 16.366 36.4457 16.1999 36.012 16.1999C35.6662 16.1999 35.3791 16.3107 35.1505 16.5321C34.922 16.7536 34.8077 17.0217 34.8077 17.3394C34.8077 17.5463 34.8604 17.7386 34.9659 17.9193C35.0714 18.1 35.215 18.2428 35.3996 18.3418C35.5842 18.4409 35.7893 18.4934 36.0149 18.4934C36.431 18.4934 36.7738 18.3273 37.0376 17.998L37.3276 18.1874C37.1929 18.3914 37.0083 18.5487 36.7797 18.6595C36.5511 18.7702 36.2904 18.8285 35.9973 18.8285C35.549 18.8285 35.1769 18.6857 34.8809 18.403C34.585 18.1204 34.4385 17.7736 34.4385 17.3685C34.4385 17.0946 34.5059 16.841 34.6465 16.6079C34.7842 16.3748 34.9747 16.1912 35.2179 16.06C35.4611 15.9289 35.7307 15.8619 36.0296 15.8619C36.2171 15.8619 36.3988 15.891 36.5746 15.9464C36.7504 16.0018 36.8969 16.0775 37.02 16.1708C37.143 16.2611 37.2456 16.3806 37.3306 16.5205H37.3276V16.5176Z" fill="white"/>
<path d="M37.9814 15.9318H38.3477V17.249C38.3477 17.5696 38.3653 17.7911 38.4005 17.9135C38.4532 18.0854 38.5528 18.2224 38.6993 18.3244C38.8459 18.4234 39.0217 18.4759 39.2268 18.4759C39.4319 18.4759 39.6048 18.4264 39.7454 18.3302C39.8861 18.2311 39.9857 18.1029 40.0384 17.9455C40.0736 17.8377 40.0941 17.6046 40.0941 17.2519V15.9347H40.4663V17.3219C40.4663 17.7124 40.4194 18.0038 40.3285 18.202C40.2377 18.4001 40.1 18.5546 39.9154 18.6653C39.7308 18.7761 39.5022 18.8314 39.2268 18.8314C38.9513 18.8314 38.7199 18.7761 38.5323 18.6653C38.3477 18.5546 38.21 18.3972 38.1162 18.1991C38.0254 17.998 37.9785 17.6978 37.9785 17.2986V15.9318H37.9814Z" fill="white"/>
<path d="M41.2832 15.9318H41.6495V16.4505C41.7931 16.2524 41.9601 16.1067 42.1476 16.0076C42.3351 15.9085 42.5461 15.8589 42.7747 15.8589C43.179 15.8589 43.5248 16.0047 43.809 16.2932C44.0962 16.5817 44.2398 16.9285 44.2398 17.3364C44.2398 17.7444 44.0962 18.1029 43.8149 18.3943C43.5307 18.6828 43.1878 18.8285 42.7864 18.8285C42.5608 18.8285 42.3527 18.7819 42.1623 18.6886C41.9718 18.5954 41.8018 18.4555 41.6495 18.2719V19.7902H41.2832V15.9347V15.9318ZM42.7454 16.2057C42.4289 16.2057 42.1623 16.3165 41.9484 16.535C41.7315 16.7536 41.626 17.0275 41.626 17.3539C41.626 17.5696 41.6729 17.7619 41.7696 17.9309C41.8663 18.1029 42.004 18.2369 42.1828 18.3389C42.3615 18.438 42.552 18.4905 42.7512 18.4905C42.9505 18.4905 43.1322 18.4409 43.305 18.3389C43.4779 18.2369 43.6156 18.097 43.7182 17.9164C43.8208 17.7357 43.8735 17.5463 43.8735 17.3452C43.8735 17.1441 43.8208 16.9547 43.7211 16.774C43.6186 16.5933 43.4838 16.4534 43.3109 16.3544C43.1409 16.2553 42.9505 16.2057 42.7483 16.2057H42.7454Z" fill="white"/>
<path d="M47.311 17.8173L47.6187 17.9776C47.519 18.1757 47.4018 18.3331 47.267 18.4555C47.1352 18.5779 46.9857 18.6682 46.8216 18.7323C46.6575 18.7964 46.4671 18.8256 46.259 18.8256C45.7961 18.8256 45.4327 18.674 45.1719 18.3739C44.9112 18.0708 44.7793 17.7299 44.7793 17.351C44.7793 16.9926 44.8906 16.6749 45.1104 16.3922C45.3917 16.0367 45.7668 15.8589 46.2356 15.8589C46.7044 15.8589 47.1059 16.0425 47.396 16.4068C47.6011 16.6633 47.7066 16.9867 47.7095 17.3714H45.1544C45.1602 17.6978 45.2657 17.9688 45.4708 18.1786C45.673 18.3885 45.9279 18.4934 46.2268 18.4934C46.3704 18.4934 46.511 18.4671 46.6488 18.4176C46.7865 18.3681 46.9008 18.301 46.9975 18.2194C47.0941 18.1378 47.1967 18.0038 47.3081 17.8173H47.311ZM47.311 17.0567C47.2612 16.8643 47.1908 16.707 47.0971 16.5933C47.0033 16.4768 46.8802 16.3835 46.7279 16.3136C46.5755 16.2436 46.4143 16.2057 46.2444 16.2057C45.966 16.2057 45.7257 16.2961 45.5265 16.4738C45.38 16.605 45.2686 16.7973 45.1954 17.0567H47.311Z" fill="white"/>
<path d="M48.2568 15.9318H48.629V16.3456C48.7403 16.1824 48.8575 16.06 48.9806 15.9814C49.1037 15.8998 49.2326 15.8619 49.3674 15.8619C49.467 15.8619 49.5754 15.8939 49.6897 15.958L49.4992 16.264C49.4231 16.232 49.3586 16.2145 49.3058 16.2145C49.1828 16.2145 49.0656 16.264 48.9542 16.3631C48.8399 16.4622 48.755 16.6166 48.6964 16.8265C48.6524 16.9868 48.629 17.3131 48.629 17.8027V18.7586H48.2568V15.9347V15.9318Z" fill="white"/>
<path d="M52.8316 15.9318V18.7556H52.4712V18.269C52.3188 18.4555 52.1459 18.5924 51.9554 18.6857C51.765 18.7789 51.5569 18.8256 51.3313 18.8256C50.9299 18.8256 50.587 18.6799 50.3028 18.3914C50.0186 18.1028 49.8779 17.7502 49.8779 17.3335C49.8779 16.9168 50.0215 16.5787 50.3087 16.2902C50.5958 16.0017 50.9416 15.856 51.346 15.856C51.5804 15.856 51.7884 15.9056 51.9789 16.0046C52.1693 16.1037 52.3334 16.2523 52.477 16.4476V15.9289H52.8316V15.9318ZM51.3723 16.2115C51.1701 16.2115 50.9826 16.2611 50.8097 16.3602C50.6368 16.4593 50.5021 16.5991 50.3995 16.7798C50.2969 16.9605 50.2471 17.1499 50.2471 17.351C50.2471 17.5521 50.2999 17.7386 50.4024 17.9222C50.505 18.1028 50.6427 18.2456 50.8156 18.3447C50.9885 18.4467 51.1731 18.4963 51.3723 18.4963C51.5716 18.4963 51.762 18.4467 51.9408 18.3447C52.1195 18.2456 52.2572 18.1087 52.3539 17.9367C52.4506 17.7648 52.5005 17.5725 52.5005 17.3597C52.5005 17.0333 52.392 16.7594 52.1752 16.5408C51.9584 16.3223 51.6917 16.2115 51.3753 16.2115H51.3723Z" fill="white"/>
<path d="M53.9708 14.8827H54.3371V15.9318H54.9172V16.2465H54.3371V18.7556H53.9708V16.2465H53.4727V15.9318H53.9708V14.8827Z" fill="white"/>
<path d="M56.8079 15.8589C57.2445 15.8589 57.6078 16.0163 57.895 16.331C58.1558 16.6195 58.2876 16.9576 58.2876 17.351C58.2876 17.7444 58.1499 18.0912 57.8715 18.3855C57.5961 18.6799 57.2415 18.8285 56.8079 18.8285C56.3742 18.8285 56.0167 18.6799 55.7413 18.3855C55.4658 18.0912 55.3281 17.7473 55.3281 17.351C55.3281 16.9547 55.46 16.6195 55.7208 16.334C56.0079 16.0163 56.3713 15.8589 56.8108 15.8589H56.8079ZM56.8079 16.2145C56.5031 16.2145 56.2423 16.3252 56.0255 16.5496C55.8087 16.774 55.6973 17.0421 55.6973 17.3597C55.6973 17.5637 55.7471 17.7532 55.8468 17.9309C55.9464 18.1087 56.0812 18.2427 56.2511 18.3389C56.4211 18.4351 56.6057 18.4817 56.8079 18.4817C57.0101 18.4817 57.1976 18.4351 57.3675 18.3389C57.5375 18.2427 57.6723 18.1058 57.769 17.9309C57.8686 17.7532 57.9184 17.5637 57.9184 17.3597C57.9184 17.0421 57.81 16.774 57.5902 16.5496C57.3705 16.3252 57.1097 16.2145 56.8079 16.2145Z" fill="white"/>
<path d="M58.8232 15.9318H59.1954V16.3456C59.3067 16.1824 59.4239 16.06 59.547 15.9814C59.6701 15.8998 59.799 15.8619 59.9338 15.8619C60.0334 15.8619 60.1418 15.8939 60.2561 15.958L60.0656 16.264C59.9895 16.232 59.925 16.2145 59.8723 16.2145C59.7492 16.2145 59.632 16.264 59.5206 16.3631C59.4064 16.4622 59.3214 16.6166 59.2628 16.8265C59.2188 16.9868 59.1954 17.3131 59.1954 17.8027V18.7586H58.8232V15.9347V15.9318Z" fill="white"/>
<path d="M61.9964 16.2407L61.762 16.4826C61.5657 16.2932 61.3752 16.1999 61.1877 16.1999C61.0705 16.1999 60.9679 16.2378 60.8829 16.3165C60.7979 16.3952 60.7569 16.4855 60.7569 16.5875C60.7569 16.6778 60.7921 16.7653 60.8624 16.8498C60.9327 16.9343 61.0792 17.0334 61.3019 17.147C61.5744 17.2869 61.759 17.4209 61.8557 17.5521C61.9524 17.6832 61.9993 17.8318 61.9993 17.995C61.9993 18.2282 61.9173 18.4234 61.7532 18.5837C61.5891 18.744 61.384 18.8256 61.1378 18.8256C60.9737 18.8256 60.8185 18.7906 60.669 18.7178C60.5196 18.6478 60.3965 18.5487 60.2998 18.4234L60.5284 18.1641C60.7159 18.3739 60.9122 18.4788 61.1203 18.4788C61.2668 18.4788 61.3928 18.4322 61.4953 18.3389C61.5979 18.2457 61.6506 18.1349 61.6506 18.0096C61.6506 17.9047 61.6155 17.8144 61.5481 17.7328C61.4807 17.6541 61.3254 17.5521 61.088 17.4326C60.8331 17.3015 60.6573 17.1703 60.5665 17.0421C60.4756 16.9139 60.4287 16.7682 60.4287 16.605C60.4287 16.3893 60.502 16.2116 60.6485 16.0717C60.795 15.9289 60.9825 15.8589 61.2052 15.8589C61.466 15.8589 61.7297 15.9872 61.9964 16.2407Z" fill="white"/>
</g>
<defs>
<clipPath id="clip0_130_160">
<rect width="62" height="20" fill="white"/>
</clipPath>
</defs>
</svg>
