<svg xmlns="http://www.w3.org/2000/svg" viewBox="0 0 2527.28 1057.78"><defs><style>.cls-1{fill:#fff;}.cls-2{fill:#fd0101;}.cls-3{fill:#feed02;}.cls-4{fill:#29ade3;}.cls-5{fill:#eb232d;}.cls-6{fill:#4db75a;fill-rule:evenodd;}</style></defs><g id="Layer_2" data-name="Layer 2"><g id="Layer_1-2" data-name="Layer 1"><rect class="cls-1" x="0.27" width="2527" height="1057.78"/><rect class="cls-2" x="0.27" y="302.44" width="2527" height="486.7"/><rect class="cls-3" y="741.21" width="2527.28" height="316.57"/><rect x="0.27" width="2527" height="340.55"/><rect class="cls-1" x="72.84" y="50.66" width="2381.86" height="956.47"/><path class="cls-4" d="M551.1,253.29c-156.45,2.18-284,127.78-286.67,285a299.57,299.57,0,0,0,10.94,83.81L208.8,658.76l143.82,40.81,20.65-71.67,20.65-71.42-59.28,32.8A241.35,241.35,0,0,1,330,539.47C332,421.4,425.26,326.41,541.39,319.12L513,290l38.14-36.68"/><path class="cls-5" d="M356,705.89l-50.77-14.34A288.68,288.68,0,0,0,375.46,771a322.48,322.48,0,0,0,31.82-15.55,318.07,318.07,0,0,0,31.59-19.92C410.2,718,385.42,694.71,367.2,667L356,705.89"/><path class="cls-5" d="M626.42,262.28l1.21-75.56-53.69,51.75-53.69,51.74,104,106.9,1-67.54a229.3,229.3,0,0,1,88.43,53.93,491,491,0,0,1,47.86-44.45,288.68,288.68,0,0,0-135.07-76.77"/><path class="cls-6" d="M846.52,301.63c-83.33,184.64-16,275.74-73.12,421.26C721.89,853.84,547.7,885.66,407,865.5c61-40.09,114.18-79.68,146.25-129,21.62-22.6,42.76-44.22,102.52-33.53-38.14-10.2-63.41-7-82.84,1.46,13.85-24,26.24-48.1,38.14-72.15,18.71-19.68,37.41-38.15,89.4-28.91-36.19-9.72-59.27-5.59-77,3.4,15.79-32.8,30.86-65.11,47.38-96.69,17.24-17.25,36.92-31.83,84-23.33-33-8.74-54.9-6.31-72.15,1,38.38-68.51,85.76-132.89,163.74-186.1"/><path class="cls-6" d="M875.67,281.47C620.1,381.8,605.52,654.14,409.23,762.74a327.68,327.68,0,0,1-75.8,30.61c-73.13,19.92-25,90.13,43.73,50.77,15.55-9,30.37-18.22,44-27.94C656.54,652.2,625,408,875.67,281.47"/><path class="cls-4" d="M1182.51,538.26q.36,59.76-37.66,103.49c-26.48,30.61-59,46.16-98.63,46.16-35.23,0-64.14-12.39-88-36.93l.49,149.9-81.87.24-1.22-405.71,78-.24v34c21.86-28.43,52-42.76,89.89-43,42.27,0,76.28,15.06,102.28,45.18,24.29,28.18,36.44,63.9,36.68,106.9M956.33,536.8c0,22.35,6.56,41.54,20.41,56.85s32.07,22.84,54.42,22.84c20.89,0,38.38-7.78,52.72-23.57s21.37-34.5,21.37-55.88c0-21.86-7.28-40.57-21.13-55.63-13.85-15.31-31.83-22.84-53.69-22.84C986.21,458.57,956.09,492.58,956.33,536.8Z"/><path class="cls-4" d="M1207.53,394.44l77.5-.25V426.5c10.93-20.16,33.77-38.38,55.39-38.38,14.82,0,26.24,1.94,35.23,5.83l.24,72.64a111.15,111.15,0,0,0-34.25-5.34c-19.2,0-32.8,10-42,29.15-6.56,14.33-9.72,32.31-9.72,53.69l.49,134.35-81.88.24-1-284.24"/><path class="cls-4" d="M1686.13,677.22l-81.14.24V645.15c-17.5,25.75-52,40.57-85,40.82-41.55,0-75.8-14.58-102.77-44.71-25.75-28.42-38.63-63.89-38.87-105.92,0-42,12.88-77.74,38.63-106.65,26.24-28.91,60.25-44,102.52-44,37.9-.24,66.08,12.39,84.06,37.41V393.22l81.87-.24.73,284.24M1606,536.56c0-22.35-7.29-41.55-21.62-56.85-14.34-15.79-33-23.32-55.64-23.32-21.38,0-38.87,7.77-52.47,23.56-13.61,15.31-20.17,34-20.17,55.39s7.29,39.85,21.62,55.64,31.83,24,52.72,23.8c20.9,0,38.39-7.77,53.21-23.32S1606,557.69,1606,536.56Z"/><path class="cls-4" d="M1985.67,676.25l-81.62.24-.49-162.28c-.24-38.87-15.55-57.82-45.92-57.82-33.52,0-49.8,22.59-49.56,66.81l.49,153.53-82.36.25-1-284.24,78.47-.25v31.83c17-27,42-40.09,75.56-40.09C1947.53,384,1985,424.32,1985,492.83l.72,183.42"/><path class="cls-4" d="M2318.26,675.28l-81.38.24V643.45c-17.5,25.75-52,40.57-84.79,40.82-41.79.24-75.8-14.58-102.77-44.46-26-28.43-38.62-63.9-38.87-105.93,0-42,12.88-77.74,38.63-106.65,26.24-29.15,60.25-44,102.52-44,37.9,0,65.84,12.39,84.06,37.41V391.76l81.87-.24.73,283.76m-80.17-140.91c0-22.35-7.29-41.54-21.38-56.85-14.33-15.79-33-23.32-55.63-23.32-21.38,0-38.87,7.77-52.72,23.57-13.6,15.3-20.16,34-20.16,55.39s7.28,39.84,21.62,55.63,31.82,24.05,52.72,23.81c20.89,0,38.38-7.78,53.2-23.08C2230.56,573.73,2238.09,555.75,2238.09,534.37Z"/><path class="cls-4" d="M1207.53,731.88h12.64V746c3.88-5.58,7.77-9.71,11.9-12.39a23.91,23.91,0,0,1,13.12-4.13c3.4,0,7,1.22,10.93,3.4l-6.56,10.45a16.36,16.36,0,0,0-6.56-1.7,17.42,17.42,0,0,0-11.9,5.1c-3.89,3.4-6.8,8.75-8.75,15.79-1.46,5.59-2.43,16.52-2.43,33.29v32.79h-12.63V731.88Z"/><path class="cls-4" d="M1348.44,796.26l10.45,5.59A53.45,53.45,0,0,1,1347,818.13a47.52,47.52,0,0,1-15.3,9.47,52.11,52.11,0,0,1-19.2,3.16c-15.79,0-28.18-5.1-36.92-15.55-9-10.45-13.37-22.11-13.37-35a52.08,52.08,0,0,1,11.18-32.8c9.47-12.15,22.35-18.22,38.38-18.22,16.52,0,29.64,6.32,39.36,18.71,7.05,8.74,10.45,19.92,10.69,33h-87c.24,11.17,3.88,20.4,10.69,27.69,7,7.29,15.55,10.69,25.75,10.69a41.57,41.57,0,0,0,14.33-2.67,38.15,38.15,0,0,0,11.91-6.8C1340.91,807.19,1344.55,802.58,1348.44,796.26Zm0-26c-1.7-6.56-4.13-11.91-7.29-15.79a34,34,0,0,0-12.63-9.48,38.17,38.17,0,0,0-16.52-3.64,35.83,35.83,0,0,0-24.54,9.23c-4.86,4.37-8.75,11.17-11.17,19.92h72.15Z"/><path class="cls-4" d="M1478.9,751.8l-10,6.08c-8.51-11.42-20.17-17-35-17-11.66,0-21.62,3.89-29.39,11.42A37,37,0,0,0,1392.9,780a39.38,39.38,0,0,0,20.16,34.5,42.93,42.93,0,0,0,20.89,5.1c14.09,0,25.76-5.58,34.74-17l10,6.56A46.87,46.87,0,0,1,1460,825.41a58.15,58.15,0,0,1-26.48,5.84q-23,0-37.9-14.58a47.93,47.93,0,0,1-15.06-35.47,51.64,51.64,0,0,1,7-26A48.09,48.09,0,0,1,1407,736.5a58.89,58.89,0,0,1,61.22,3.64A35.48,35.48,0,0,1,1478.9,751.8Z"/><path class="cls-4" d="M1501.25,731.88h12.39v45.19c0,10.93.48,18.71,1.7,22.84a24.92,24.92,0,0,0,10.2,14.09,31.31,31.31,0,0,0,18,5.1c7,0,12.88-1.7,17.74-5.1a25.25,25.25,0,0,0,10-13.12c1.21-3.65,1.94-11.66,1.94-23.81V731.88h12.63v47.38c0,13.36-1.45,23.32-4.61,30.12a34.35,34.35,0,0,1-14.09,15.79c-6.32,3.65-14.09,5.83-23.57,5.83s-17.25-1.94-23.56-5.83a36.18,36.18,0,0,1-14.1-16c-3.15-6.8-4.61-17-4.61-30.86v-46.4Z"/><path class="cls-4" d="M1613.49,731.88h12.39v17.74c4.86-6.81,10.44-11.91,17-15.07a44.86,44.86,0,0,1,21.38-5.1,47.18,47.18,0,0,1,35.23,14.82A49.35,49.35,0,0,1,1714.07,780a50,50,0,0,1-14.58,36.2,48.59,48.59,0,0,1-56.12,10,55.94,55.94,0,0,1-17.49-14.33v52h-12.39Zm49.8,9.48c-10.69,0-19.92,3.64-27.21,11.17s-10.93,16.77-10.93,27.94a40.69,40.69,0,0,0,4.86,19.68A36.77,36.77,0,0,0,1644.1,814a39.37,39.37,0,0,0,19.43,5.1,36.75,36.75,0,0,0,18.71-5.1,38.68,38.68,0,0,0,14.09-14.58c3.4-6.32,5.35-12.63,5.35-19.44a39.28,39.28,0,0,0-5.11-19.43,36.3,36.3,0,0,0-14.09-14.33A40.18,40.18,0,0,0,1663.29,741.36Z"/><path class="cls-4" d="M1818.77,796.26l10.45,5.59a53.43,53.43,0,0,1-11.9,16.28A47.68,47.68,0,0,1,1802,827.6a52.06,52.06,0,0,1-19.19,3.16c-15.79,0-28.18-5.1-36.93-15.55s-13.36-22.11-13.36-35a52.07,52.07,0,0,1,11.17-32.8c9.48-12.15,22.36-18.22,38.39-18.22,16.52,0,29.64,6.32,39.36,18.71,7,8.74,10.44,19.92,10.69,33h-87c.25,11.17,3.89,20.4,10.69,27.69,7.05,7.29,15.55,10.69,25.75,10.69a41.67,41.67,0,0,0,14.34-2.67,38.22,38.22,0,0,0,11.9-6.8C1811.49,807.19,1814.89,802.58,1818.77,796.26Zm0-26c-1.7-6.56-4.13-11.91-7.28-15.79a33.94,33.94,0,0,0-12.64-9.48,38.17,38.17,0,0,0-16.52-3.64,35.82,35.82,0,0,0-24.53,9.23c-4.86,4.37-8.75,11.17-11.18,19.92h72.15Z"/><path class="cls-4" d="M1850.84,731.88h12.63V746c3.89-5.58,7.78-9.71,11.91-12.39a23.91,23.91,0,0,1,13.12-4.13c3.4,0,7,1.22,10.93,3.4l-6.56,10.45a16.36,16.36,0,0,0-6.56-1.7,17.42,17.42,0,0,0-11.9,5.1c-3.89,3.4-6.81,8.75-8.75,15.79-1.46,5.59-2.43,16.52-2.43,33.29v32.79H1850.6V731.88Z"/><path class="cls-4" d="M2006.57,731.88v96.69h-12.15V812.05a53.64,53.64,0,0,1-17.49,14.34,47.56,47.56,0,0,1-21.14,4.86,47,47,0,0,1-35-14.82c-9.72-10-14.58-21.87-14.58-36.2a49.33,49.33,0,0,1,14.58-35.71A47.52,47.52,0,0,1,1956,729.7a45.82,45.82,0,0,1,21.62,5.1,52.25,52.25,0,0,1,17,15.06V732.13h11.91ZM1957,741.36a37.88,37.88,0,0,0-19.2,5.1,39.93,39.93,0,0,0-14.09,14.33,39.44,39.44,0,0,0-5.1,19.44,37.16,37.16,0,0,0,5.35,19.43,38.64,38.64,0,0,0,14.09,14.58,37,37,0,0,0,19,5.1,39.37,39.37,0,0,0,19.43-5.1,36.7,36.7,0,0,0,14.09-13.85c3.4-5.83,4.86-12.39,4.86-19.68,0-11.17-3.64-20.4-10.93-27.93A37,37,0,0,0,1957,741.36Z"/><path class="cls-4" d="M2045.44,695.93h12.39v36h19.68v10.69h-19.68v85.76h-12.39V742.57h-17V731.88h17Z"/><path class="cls-4" d="M2141.89,729.45c14.82,0,27.21,5.35,36.92,16.28,9,9.72,13.36,21.38,13.36,35s-4.61,25.27-14.09,35.47-21.37,15.07-36.19,15.07-27-5.11-36.45-15.07c-9.47-10.2-14.09-21.86-14.09-35.47,0-13.36,4.38-25,13.37-34.74C2114.68,734.8,2127.07,729.45,2141.89,729.45Zm0,12.15c-10.45,0-19.2,3.89-26.73,11.42S2104,769.78,2104,780.71a38.09,38.09,0,0,0,5.1,19.44,36.66,36.66,0,0,0,32.8,19,39.28,39.28,0,0,0,19-4.86,34.57,34.57,0,0,0,13.6-14.09,39.38,39.38,0,0,0,5.1-19.44c0-10.93-3.64-20.16-11.17-27.69A35,35,0,0,0,2141.89,741.6Z"/><path class="cls-4" d="M2210.64,731.88h12.63V746c3.89-5.58,7.78-9.71,11.91-12.39a23.9,23.9,0,0,1,13.11-4.13c3.41,0,7.05,1.22,10.94,3.4l-6.56,10.45a16.4,16.4,0,0,0-6.56-1.7,17.46,17.46,0,0,0-11.91,5.1c-3.88,3.4-6.8,8.75-8.74,15.79C2224,768.08,2223,779,2223,795.78v32.79H2210.4V731.88Z"/><path class="cls-4" d="M2318.5,742.33l-8,8.26c-6.56-6.56-13.12-9.72-19.44-9.72a14.68,14.68,0,0,0-10.44,3.89,12.32,12.32,0,0,0-4.38,9.23,13.8,13.8,0,0,0,3.65,9c2.43,2.91,7.28,6.32,15.06,10.2q13.84,7.29,18.95,13.85a24.5,24.5,0,0,1,4.86,15.31,27.16,27.16,0,0,1-8.26,20.16c-5.59,5.59-12.64,8.26-20.9,8.26a37,37,0,0,1-16-3.64,36.59,36.59,0,0,1-12.63-10l7.77-9c6.32,7,13.12,10.69,20.17,10.69A17.85,17.85,0,0,0,2301.5,814c3.4-3.16,5.34-7,5.34-11.18a14.57,14.57,0,0,0-3.4-9.47c-2.43-2.68-7.53-6.08-15.79-10.21-8.75-4.61-14.58-9-17.73-13.36a25.11,25.11,0,0,1-4.62-15.06c0-7.29,2.43-13.36,7.53-18.22a26.41,26.41,0,0,1,19-7.29C2300.53,729.45,2309.52,733.58,2318.5,742.33Z"/></g></g></svg>